<?xml version="1.0" encoding="utf-8"?>
<!-- Generator: Adobe Illustrator 24.1.2, SVG Export Plug-In . SVG Version: 6.00 Build 0)  -->
<svg version="1.1" id="Layer_1" xmlns="http://www.w3.org/2000/svg" xmlns:xlink="http://www.w3.org/1999/xlink" x="0px" y="0px"
	 viewBox="0 0 38.6 35.1" style="enable-background:new 0 0 38.6 35.1;" xml:space="preserve">
<style type="text/css">
	.st0{fill:#58595B;}
	.st1{fill:#939598;}
	.st2{fill:#231F20;}
	.st3{fill:#FBB040;}
</style>
<g>
	<polygon class="st0" points="26.3,12.7 23.2,5.2 21.2,4.3 19.1,6.3 17.5,4.2 15.4,5 12.6,12.7 	"/>
	<g>
		<path class="st0" d="M19.6,31.7h10.6v-6.1c0-1.2-0.8-1.7-0.8-1.7l-3.7-1.8c-1.5,1.5-3.5,2.8-6.1,2.9V31.7z"/>
		<path class="st0" d="M8,31.7h10.6V25c-2.6-0.1-4.6-1.3-6.1-2.8v0.1l-3.7,1.6c-0.1,0-0.9,0.2-0.9,1.6v6.2H8z"/>
	</g>
	<g>
		<polygon class="st1" points="20.3,31.7 19.6,31.7 19.6,25 20.3,25 		"/>
	</g>
	<circle class="st1" cx="22.4" cy="27.2" r="1.2"/>
	<polygon class="st1" points="19.1,6.3 19,8.5 25.3,10.3 23.2,5.2 21.2,4.3 	"/>
	<g>
		<path class="st0" d="M25.3,16.7c-0.7,2.5-2.4,5.6-6.3,5.6c-4,0-5.8-3.1-6.6-5.6H10c0.8,1.9,3.7,7.5,9.1,7.5s8.1-5.6,8.9-7.5
			C28,16.7,25.3,16.7,25.3,16.7z"/>
	</g>
	<path class="st2" d="M29.9,23.1l-3.4-1.7c1.9-2.3,2.8-4.9,2.8-4.9l0.2-0.7h-4c-0.1,0.3-0.4,0.7-0.7,1H28c-0.8,1.9-3.5,7.3-8.9,7.3
		s-8.3-5.4-9.1-7.3h3c-0.3-0.3-0.6-0.7-0.8-1H8.5l0.2,0.7c0.1,0.2,1,2.9,3.1,5.2l-3.2,1.4c-0.6,0.1-1.7,0.8-1.7,2.6v7.1h24.2v-7.1
		C31.3,23.7,29.9,23.1,29.9,23.1z M18.6,31.7H8v-6.1C8,24.2,8.8,24,8.9,24l3.7-1.6v-0.1c1.5,1.4,3.5,2.6,6.1,2.8v6.6H18.6z
		 M30.3,31.7H19.6V25c2.6-0.1,4.6-1.4,6.1-2.9l3.7,1.8c0,0,0.8,0.4,0.8,1.7L30.3,31.7L30.3,31.7z"/>
	<path class="st3" d="M19.2,18.6c-5,0-6.7-1.9-7.2-3.3c0.5,2.4,2.2,7,7,7c4.7,0,6.2-4.5,6.7-7C25.2,16.8,23.7,18.6,19.2,18.6z"/>
	<path class="st2" d="M27.3,12.7l-3.4-8.2l-3-1.4l-1.8,1.8l-1.3-1.8l-3.2,1.1l-3.1,8.5H8.6v1.5h3.2c0,1,0.6,4.5,7.5,4.5
		c6.2,0,6.7-3.5,6.6-4.5h3.8v-1.5H27.3z M16,16.6c-1.6,0-1.8-2.1-1.8-2.1l3.4,1.1C17.6,15.5,17.6,16.6,16,16.6z M22,16.6
		c-1.6,0-1.8-1.1-1.8-1.1l3.4-1.1C23.6,14.5,23.6,16.6,22,16.6z M12.6,12.7L15.4,5l2.1-0.7l1.6,2.1l2.1-2.1l2,0.9l3.1,7.5H12.6z"/>
</g>
</svg>
