<?xml version="1.0" encoding="utf-8"?>
<!-- Generator: Adobe Illustrator 24.1.2, SVG Export Plug-In . SVG Version: 6.00 Build 0)  -->
<svg version="1.1" id="Layer_1" xmlns="http://www.w3.org/2000/svg" xmlns:xlink="http://www.w3.org/1999/xlink" x="0px" y="0px"
	 viewBox="0 0 36 32.7" style="enable-background:new 0 0 36 32.7;" xml:space="preserve">
<style type="text/css">
	.st0{fill:#6D6E71;}
	.st1{fill:#58595B;}
	.st2{fill:#3FC44B;}
	.st3{fill:#231F20;}
</style>
<path class="st0" d="M26.5,13.9c0-0.1,0-0.1,0-0.1v-0.2c-0.9-2.3-1.8-4.8-1.9-5c0-0.4-0.4-0.8-0.8-1c-0.4-0.1-0.7-0.1-1.2,0
	c-0.6,0.3-4.4,2-4.5,2H18l-0.3-0.3c0,0,0-0.1,0-0.2c0-0.1,1-1.8,0.5-3.3C18,4.9,17.3,4,16.5,3.7c-0.9-0.5-1.9-0.6-2.8-0.2
	c-0.9,0.3-1.6,0.9-1.8,1.7c-0.5,1-0.4,2.2,0,2.7c0.6,1.2,1.6,1.9,2.1,2c0,0,0.1,0.1,0.1,0.2c0,0.1,0,0.1,0,0.1L10,13.9
	c-0.1,0-0.1,0.1-0.1,0.1l-2.8-0.5c-0.3-0.1-1-0.2-1.4,0.1l-0.1,0.1c-0.1,0.1-0.4,0.3-0.4,0.7c-0.2,0.8,0.2,1.5,1.2,2l0.1,0.1h0.1
	c0.1,0,0.2,0,0.3,0.2l0.2,0.1c1.3,0.5,2.9,1,3.4,1.1c0.3,0.1,0.6,0,0.8-0.2c0.2-0.1,0.3-0.3,0.3-0.5l2.8-2.6c0,0,0.1,0,0.2-0.1
	l1.2,2.8c0,0,0,0.1-0.1,0.2L13,19.1c-0.7,0.4-1.9,1.5-1.5,2.5c0.4,1.2,2.3,6.8,2.5,7.5v0.1c0.2,0.4,0.7,0.8,1.4,0.8
	c0.2,0,0.3,0,0.5-0.1c1.6-0.5,1.6-1.7,1.6-1.9l-1.9-5.6c0-0.1,0-0.1,0-0.1l0.1-0.1c0.2-0.2,2.6-1.9,3.8-2.6c1.1-0.8,1.7-2.2,1.4-3.4
	c-0.2-0.6-0.4-1.6-0.6-2.3c-0.2-0.8-0.3-1.1-0.4-1.3c0,0,0-0.1,0.1-0.1l2.1-1.2c0.1,0.1,0.1,0.1,0.2,0.1l1.2,3.2
	c0.1,0.3,0.4,0.7,0.7,0.9c0.4,0.2,0.8,0.3,1.1,0.1c0.6-0.1,0.9-0.5,1.1-0.9C26.7,14.7,26.6,14.2,26.5,13.9z"/>
<path class="st1" d="M21.5,17.2l1.9,5l5.5-1.7c0,0,1.5,0.2,1.7,1.4s-0.7,2-0.7,2s-6.9,2.3-7.7,2.3s-1.5-0.1-1.8-0.9
	c-0.4-0.8-2.1-5.1-2.1-5.1"/>
<g>
	<path class="st2" d="M30.9,10.8c-1.1-0.4-2.6,0.4-3.2,0.9c-0.2,0.1-0.4,0.3-0.8,0.5c0.2,0.6,0.4,1.2,0.4,1.2c0,0.1,0.4,1,0.1,1.8
		c1.1,0.2,2.6,0.2,3.6-0.1c0.8-0.2,1.7-0.9,1.1-2.7C32,11.6,31.6,11,30.9,10.8z"/>
</g>
<path class="st2" d="M8.8,18.9c0-0.3-0.1-0.8-0.1-1.1c-0.8-0.3-1.5-0.5-2.1-0.8c-0.8,0.8-2.3,2.4-2.7,3.8c-0.2,0.8-0.2,1.8,1.6,2.4
	c0.9,0.2,1.6,0.2,2.2-0.2c1-0.8,1.1-2.5,1.1-3.1C8.9,19.6,8.9,19.2,8.8,18.9z"/>
<path class="st3" d="M23.1,15.2c0.3,0.7,1.3,1.9,2.8,1.4c0.4-0.1,0.6-0.3,0.9-0.5c0.7,0.2,1.6,0.3,2.4,0.3s1.5-0.1,2-0.3
	C33,15.5,33.6,14,33,12c-0.4-1.2-1.1-2-2-2.4c-1.5-0.5-3.2,0.3-4.1,0.9c-0.2,0.1-0.3,0.2-0.4,0.3c-0.5-1.3-1-2.6-1.1-2.9
	c-0.1-0.4-0.5-0.9-1.2-1.2c-0.4-0.2-1-0.3-1.8,0c-0.4,0.2-2.3,1.1-3.5,1.6c0.3-0.7,0.5-1.8,0.2-2.8C18.8,4.4,18,3.4,17,2.9
	s-2.2-0.6-3.3-0.3c-1.1,0.4-1.9,1.1-2.3,2.1c-0.5,1.1-0.5,2.4,0,3.4s1.1,1.6,1.7,2L9.9,13l-2.3-0.6c-0.1,0-1.1-0.4-2,0.1
	c-0.5,0.3-0.8,0.7-1,1.3c-0.3,1.2,0.3,2,0.9,2.5c-1,0.9-2.2,2.5-2.5,3.8c-0.5,1.8,0.4,3.2,2.4,3.7C5.8,23.9,6.3,24,6.7,24
	c0.7,0,1.3-0.2,1.8-0.6c1.3-1,1.5-2.9,1.5-3.9c0-0.4,0-0.8-0.1-1.1c0-0.1,0-0.3,0-0.4c0.3,0.1,0.5,0.1,0.6,0.2
	c0.9,0.2,1.6-0.4,1.9-0.8l2-2l0.6,1.4l-2.2,1.3c-0.9,0.6-2.4,1.9-1.8,3.5c0.4,1.2,2.5,7.6,2.5,7.7c0,0,0,0.1,0.1,0.1
	c0.3,0.5,1.1,1.2,2.1,1.2c0.2,0,0.4,0,0.7-0.1c1.8-0.6,2.2-2,2.2-2.7c0-0.1,0-0.1,0-0.2l-1.8-5.1c0.4-0.3,1-0.7,1.6-1.1
	c0.5,1.3,1.3,3.3,1.6,3.8c0.5,1.2,1.7,1.2,2.4,1.2c0.8,0,6.2-1.8,7.9-2.3c0.1,0,0.1-0.1,0.2-0.1s1.2-1,0.9-2.6
	c-0.2-1.3-1.5-1.8-2.3-1.9c-0.1,0-0.2,0-0.3,0l-5,1.5l-1.7-4c0-0.1-0.1-0.1-0.1-0.2c0-0.2,0-0.3-0.1-0.5c-0.3-0.9-0.6-2.3-0.8-3
	l1.1-0.6L23.1,15.2z M27.6,11.7c0.5-0.4,1.9-1.1,3-0.8c0.5,0.2,1,0.7,1.2,1.6c0.6,1.7-0.3,2.3-1,2.5c-0.9,0.3-2.3,0.2-3.3,0.1
	c0.2-0.9-0.1-1.7-0.1-1.7s-0.2-0.5-0.4-1.1C27.2,12.1,27.4,11.9,27.6,11.7z M8.6,18.9c0,0.3,0.1,0.7,0.1,1c0,0.7-0.1,2.2-1,2.9
	c-0.5,0.4-1.1,0.4-2,0.2c-1.8-0.5-1.7-1.5-1.5-2.2c0.3-1.3,1.7-2.9,2.5-3.5c0.4,0.2,1.1,0.4,1.9,0.7C8.5,18.2,8.6,18.5,8.6,18.9z
	 M22.9,22.4c0.1,0.3,0.4,0.5,0.8,0.4l5.4-1.7c0.3,0.1,1,0.3,1.1,0.9c0.1,0.7-0.3,1.1-0.4,1.3c-3.2,1.1-6.8,2.2-7.3,2.2
	c-0.8,0-1.1-0.1-1.3-0.5c-0.2-0.6-1.1-2.7-1.6-4c0.3-0.2,0.5-0.3,0.7-0.4c0.6-0.4,1.1-0.9,1.4-1.5L22.9,22.4z M20.1,12.4
	c-0.3,0.1-0.4,0.4-0.3,0.7c0,0.1,0.6,2.3,1,3.6c0.3,1-0.3,2.2-1.2,2.8c-1.2,0.7-3.8,2.5-3.9,2.6c-0.2,0.2-0.3,0.5-0.2,0.7l1.9,5.4
	c0,0.2-0.1,1-1.3,1.4c-0.7,0.2-1.2-0.3-1.3-0.5c-0.3-0.8-2.1-6.5-2.5-7.6c-0.3-0.8,0.8-1.7,1.3-1.9l2.7-1.6c0.3-0.2,0.4-0.5,0.3-0.8
	l-1.4-2.9c-0.1-0.2-0.2-0.3-0.4-0.4c-0.2,0-0.4,0-0.6,0.2l-2.8,2.6l-0.1,0.1c0,0-0.3,0.4-0.6,0.4c-0.5-0.1-2-0.6-3.3-1.1
	C7.2,16,7,15.9,6.7,15.8c-0.2-0.1-1.2-0.6-0.9-1.5C5.9,14,6,13.9,6.1,13.8c0.3-0.2,0.8-0.1,1,0l2.6,0.7c0.2,0.1,0.4,0,0.6-0.1
	l4.1-3.7c0.2-0.1,0.2-0.4,0.2-0.6c0-0.2-0.2-0.4-0.4-0.5c0,0-1.2-0.5-1.9-1.8c-0.3-0.5-0.3-1.5,0-2.3c0.3-0.7,0.8-1.2,1.5-1.4
	c0.8-0.3,1.6-0.2,2.4,0.2c0.7,0.4,1.3,1.1,1.5,1.8c0.4,1.3-0.5,2.8-0.5,2.9c-0.1,0.2-0.1,0.6,0.1,0.8l0.3,0.3
	c0.2,0.2,0.5,0.2,0.7,0.1c0,0,3.9-1.8,4.5-2c0.3-0.1,0.5-0.1,0.8,0s0.5,0.4,0.5,0.5c0.2,0.5,1.9,5.2,1.9,5.2c0.1,0.2,0.2,0.7,0,1.1
	c-0.1,0.3-0.4,0.4-0.8,0.6c-0.8,0.2-1.2-0.7-1.2-0.7l-1.2-3.2c-0.1-0.2-0.2-0.3-0.4-0.4c-0.2-0.1-0.4-0.1-0.5,0L20.1,12.4z"/>
</svg>
