<?xml version="1.0" encoding="utf-8"?>
<!-- Generator: Adobe Illustrator 24.1.2, SVG Export Plug-In . SVG Version: 6.00 Build 0)  -->
<svg version="1.1" id="Layer_1" xmlns="http://www.w3.org/2000/svg" xmlns:xlink="http://www.w3.org/1999/xlink" x="0px" y="0px"
	 viewBox="0 0 38.9 35.3" style="enable-background:new 0 0 38.9 35.3;" xml:space="preserve">
<style type="text/css">
	.st0{fill:#EFBFC9;}
	.st1{fill:#231F20;}
	.st2{fill:#ED1C24;}
</style>
<circle class="st0" cx="19.5" cy="18.1" r="8.8"/>
<path class="st1" d="M33.9,17.1h-4.2c-0.5-4.9-4.4-8.8-9.3-9.3V3.6c0-0.6-0.4-1-1-1s-1,0.4-1,1v4.2c-4.9,0.5-8.8,4.4-9.3,9.3H4.9
	c-0.6,0-1,0.4-1,1s0.4,1,1,1h4.2c0.5,4.9,4.4,8.8,9.3,9.3v4.2c0,0.6,0.4,1,1,1s1-0.4,1-1v-4.2c4.9-0.5,8.8-4.4,9.3-9.3h4.2
	c0.6,0,1-0.4,1-1S34.5,17.1,33.9,17.1z M28.2,17.1h-7.7V9.4C24.5,9.8,27.8,13,28.2,17.1z M18.5,9.4v7.7h-7.7
	C11.2,13,14.4,9.8,18.5,9.4z M10.7,19.1h7.7v7.7C14.4,26.4,11.2,23.2,10.7,19.1z M20.5,26.8v-7.7h7.7C27.8,23.2,24.5,26.4,20.5,26.8
	z"/>
<path class="st2" d="M19.5,23.4c-2.9,0-5.3-2.4-5.3-5.3s2.4-5.3,5.3-5.3s5.3,2.4,5.3,5.3C24.8,21,22.4,23.4,19.5,23.4z"/>
<path class="st1" d="M19.5,12.8c2.9,0,5.3,2.4,5.3,5.3s-2.4,5.3-5.3,5.3s-5.3-2.4-5.3-5.3C14.2,15.2,16.5,12.8,19.5,12.8 M19.5,11.3
	c-3.7,0-6.8,3.1-6.8,6.8s3.1,6.8,6.8,6.8s6.8-3.1,6.8-6.8S23.2,11.3,19.5,11.3L19.5,11.3z"/>
</svg>
