<?xml version="1.0" encoding="UTF-8"?>
<svg width="24px" height="13px" viewBox="0 0 24 13" version="1.1" xmlns="http://www.w3.org/2000/svg" xmlns:xlink="http://www.w3.org/1999/xlink">
    <!-- Generator: sketchtool 63.1 (101010) - https://sketch.com -->
    <title>ADFC3F21-B7BD-4B5E-8929-2CEF38196EFE</title>
    <desc>Created with sketchtool.</desc>
    <g id="Page-1" stroke="none" stroke-width="1" fill="none" fill-rule="evenodd">
        <g id="1.0-SpotCrime-—-Landing-Page-—-Desktop-HD" transform="translate(-708.000000, -886.000000)" fill-rule="nonzero">
            <g id="header" transform="translate(0.000000, 54.000000)">
                <g id="entypo-chevron-thin-down" transform="translate(706.000000, 824.000000)">
                    <g id="Icon" transform="translate(2.000000, 8.000000)" fill="#FFFFFF">
                        <path d="M22.3071158,0.272257143 C22.6842337,-0.0923988684 23.2902926,-0.0923988684 23.6674105,0.272257143 C23.8477411,0.446323574 23.9492833,0.684026251 23.9492833,0.9321 C23.9492833,1.18017375 23.8477411,1.41787643 23.6674105,1.59194286 L12.6794526,12.2556571 C12.3023347,12.6203132 11.6962758,12.6203132 11.3191579,12.2556571 L0.3312,1.59194286 C0.150869467,1.41787643 0.0493272484,1.18017375 0.0493272484,0.9321 C0.0493272484,0.684026251 0.150869467,0.446323574 0.3312,0.272257143 C0.708317938,-0.0923988684 1.3143768,-0.0923988684 1.69149474,0.272257143 L12,9.99761905 L22.3071158,0.272257143 Z" id="Icon-Path"></path>
                    </g>
                    <rect id="ViewBox" x="0" y="0" width="28" height="28"></rect>
                </g>
            </g>
        </g>
    </g>
</svg>