<?xml version="1.0" encoding="UTF-8"?>
<svg width="13px" height="24px" viewBox="0 0 13 24" version="1.1" xmlns="http://www.w3.org/2000/svg" xmlns:xlink="http://www.w3.org/1999/xlink">
    <!-- Generator: sketchtool 63.1 (101010) - https://sketch.com -->
    <title>98B8853E-3FD3-44D0-A9F7-EA3C2C709578@1x</title>
    <desc>Created with sketchtool.</desc>
    <g id="Page-1" stroke="none" stroke-width="1" fill="none" fill-rule="evenodd">
        <g id="1.1-SpotCrime--—-Get-Alert-Copy-2" transform="translate(-295.000000, -325.000000)" fill="#FFFFFF" fill-rule="nonzero">
            <g id="Button" transform="translate(19.000000, 304.000000)">
                <g id="Group-2" transform="translate(45.000000, 20.000000)">
                    <g id="simple-line-icons:arrow-right" transform="translate(231.000000, 0.000000)">
                        <g id="Icon">
                            <path d="M1.34315232,24.984375 C1.13914504,24.984375 0.960638661,24.9061736 0.807633197,24.7497709 C0.654627732,24.5933682 0.578125,24.4056849 0.578125,24.186721 C0.578125,23.9677572 0.650984745,23.7800739 0.796704235,23.6236712 L10.7857753,12.9022636 L0.949709699,2.36853922 C0.862278005,2.25905731 0.800347222,2.13393512 0.76391735,1.99317265 C0.727487477,1.85241019 0.727487477,1.7155578 0.76391735,1.58261547 C0.800347222,1.44967314 0.862278005,1.32846102 0.949709699,1.21897911 C1.09542919,1.06257637 1.27393556,0.984375 1.48522883,0.984375 C1.69652209,0.984375 1.87502846,1.06257637 2.02074795,1.21897911 L12.3595458,12.3392137 C12.4324055,12.4174151 12.4870503,12.5073467 12.5234802,12.6090084 C12.5599101,12.7106702 12.578125,12.812332 12.578125,12.9139938 C12.578125,13.0156555 12.5599101,13.1134073 12.5234802,13.2072489 C12.4870503,13.3010905 12.4324055,13.387112 12.3595458,13.4653134 L1.86774249,24.7497709 C1.79488274,24.8279723 1.71109403,24.8866233 1.61637637,24.925724 C1.5216587,24.9648247 1.43058402,24.984375 1.34315232,24.984375 Z" id="Icon-Path"></path>
                        </g>
                    </g>
                </g>
            </g>
        </g>
    </g>
</svg>