<?xml version="1.0" encoding="UTF-8"?>
<svg width="20px" height="20px" viewBox="0 0 20 20" version="1.1" xmlns="http://www.w3.org/2000/svg" xmlns:xlink="http://www.w3.org/1999/xlink">
    <!-- Generator: sketchtool 63.1 (101010) - https://sketch.com -->
    <title>2BA8C26F-57B5-4F3E-A490-30C1259B0858</title>
    <desc>Created with sketchtool.</desc>
    <g id="Page-1" stroke="none" stroke-width="1" fill="none" fill-rule="evenodd">
        <g id="2.2.2-SpotCrime--—-InActive-Location" transform="translate(-34.000000, -168.000000)" fill-rule="nonzero">
            <g id="header" transform="translate(-2.000000, 136.000000)">
                <g id="search" transform="translate(20.000000, 15.000000)">
                    <g id="bx-bx-current-location" transform="translate(14.000000, 15.000000)">
                        <g id="Icon" transform="translate(2.000000, 2.000000)" fill="#BFBFBF">
                            <circle id="Icon-Oval" cx="10" cy="10" r="4"></circle>
                            <path d="M11,2.069 L11,0 L9,0 L9,2.069 C5.38074006,2.53111378 2.53111378,5.38074006 2.069,9 L0,9 L0,11 L2.069,11 C2.53044496,14.6195881 5.3804119,17.469555 9,17.931 L9,20 L11,20 L11,17.931 C14.6197522,17.4698897 17.4698897,14.6197522 17.931,11 L20,11 L20,9 L17.931,9 C17.469555,5.3804119 14.6195881,2.53044496 11,2.069 Z M10,16 C6.691,16 4,13.309 4,10 C4,6.691 6.691,4 10,4 C13.309,4 16,6.691 16,10 C16,13.309 13.309,16 10,16 Z" id="Icon-Shape"></path>
                        </g>
                        <rect id="ViewBox" x="0" y="0" width="24" height="24"></rect>
                    </g>
                </g>
            </g>
        </g>
    </g>
</svg>