<?xml version="1.0" encoding="UTF-8"?>
<svg width="13px" height="24px" viewBox="0 0 13 24" version="1.1" xmlns="http://www.w3.org/2000/svg" xmlns:xlink="http://www.w3.org/1999/xlink">
    <!-- Generator: sketchtool 63.1 (101010) - https://sketch.com -->
    <title>5C30F2A5-2840-43D4-9D62-10635D65EF2A</title>
    <desc>Created with sketchtool.</desc>
    <g id="Page-1" stroke="none" stroke-width="1" fill="none" fill-rule="evenodd">
        <g id="1.0-SpotCrime-—-Landing-Page-—-Desktop-HD" transform="translate(-887.000000, -2712.000000)" fill-rule="nonzero">
            <g id="Footer" transform="translate(0.000000, 2580.000000)">
                <g id="social-icons" transform="translate(878.000000, 127.000000)">
                    <g id="dashicons-facebook-alt" transform="translate(0.000000, 2.000000)">
                        <g id="Icon" transform="translate(9.000000, 3.000000)" fill="#1D3339">
                            <path d="M3.69,24 L8.085,24 L8.085,13.05 L11.76,13.05 L12.315,8.79 L8.085,8.79 L8.085,6.06 C8.085,4.83 8.43,3.99 10.2,3.99 L12.465,3.99 L12.465,0.165 C12.075,0.12 10.74,0 9.18,0 C5.91,0 3.69,1.995 3.69,5.64 L3.69,8.79 L0,8.79 L0,13.05 L3.69,13.05 L3.69,24 Z" id="Icon-Path"></path>
                        </g>
                        <rect id="ViewBox" x="0" y="0" width="30" height="30"></rect>
                    </g>
                </g>
            </g>
        </g>
    </g>
</svg>