<?xml version="1.0" encoding="UTF-8"?>
<svg width="75px" height="78px" viewBox="0 0 75 78" version="1.1" xmlns="http://www.w3.org/2000/svg" xmlns:xlink="http://www.w3.org/1999/xlink">
    <!-- Generator: sketchtool 63.1 (101010) - https://sketch.com -->
    <title>5E892DB2-5F27-4405-A666-DE9D055CAFFA</title>
    <desc>Created with sketchtool.</desc>
    <g id="Page-1" stroke="none" stroke-width="1" fill="none" fill-rule="evenodd">
        <g id="1.0-SpotCrime-—-Landing-Page-—-Desktop-HD" transform="translate(-383.000000, -1747.000000)" fill="#000000" fill-rule="nonzero">
            <g id="section__how-it-works" transform="translate(130.000000, 1644.000000)">
                <g id="noun_Gear_257641" transform="translate(253.000000, 103.000000)">
                    <path d="M37.8829243,23.5798432 C29.4803561,23.5798432 22.670611,30.3914822 22.670611,38.7921565 C22.670611,47.1956717 29.481303,54.0054167 37.8829243,54.0054167 C46.2845455,54.0054167 53.0952376,47.1956717 53.0952376,38.7921565 C53.0952376,30.3914822 46.2845455,23.5798432 37.8829243,23.5798432 M37.8829243,50.9627647 C31.1603015,50.9627647 25.7123161,45.5138322 25.7123161,38.7921565 C25.7123161,32.0723747 31.1603015,26.6215483 37.8829243,26.6215483 C44.6036531,26.6215483 50.0525855,32.0723747 50.0525855,38.7921565 C50.0525855,45.5147792 44.6046001,50.9627647 37.8829243,50.9627647 M74.5386901,49.7477872 L67.5518595,42.9749744 C67.7393619,41.6065859 67.8444768,40.2135759 67.8444768,38.7921565 C67.8444768,37.3735779 67.7403088,35.978674 67.5518595,34.6121794 L74.5386901,27.8374727 L74.5349022,27.8355787 C75.0244917,27.3601939 75.1532812,26.6016616 74.7981631,25.9842296 L67.2109461,12.8098208 C66.9315865,12.3230723 66.4240043,12.0531825 65.9012705,12.0531825 C65.7611172,12.0531825 65.6190699,12.0730691 65.4827046,12.1128423 L65.4808106,12.1090544 L56.1331547,14.7890125 C53.9446801,13.0797106 51.5204071,11.66492 48.9133666,10.6014596 L46.5582232,1.15342365 L46.5534883,1.15342365 C46.3887135,0.493377442 45.795903,-5.68434189e-14 45.0856667,-5.68434189e-14 L29.9150206,-5.68434189e-14 C29.2038374,-5.68434189e-14 28.6119739,0.493377442 28.4462521,1.15437064 L28.4434111,1.15437064 L26.0873208,10.6024066 C23.4793333,11.665867 21.0550603,13.0806576 18.8675327,14.7899595 L9.51892978,12.1100014 L9.5179828,12.1137893 C9.37972347,12.0749631 9.23862321,12.0541295 9.0994169,12.0541295 C8.57668303,12.0541295 8.06815388,12.3240192 7.78784731,12.8107678 L0.201577285,25.9842296 C-0.153540835,26.6016616 -0.0238043484,27.3601939 0.464838185,27.8355787 L0.461050258,27.8374727 L7.4478809,34.6121794 C7.26132551,35.978674 7.15621055,37.3735779 7.15621055,38.7921565 C7.15621055,40.2126289 7.26037853,41.605639 7.4478809,42.9749744 L0.461050258,49.7477872 L0.464838185,49.7515751 C-0.0238043484,50.225066 -0.152593853,50.9854922 0.201577285,51.6029243 L7.78784731,64.777333 C8.06815388,65.2640816 8.57668303,65.5339714 9.0994169,65.5339714 C9.23862321,65.5339714 9.37972347,65.5140848 9.5179828,65.4743115 L9.51892978,65.4780995 L18.8675327,62.7962474 C21.0541133,64.5074433 23.4793333,65.9222339 26.0873208,66.9838003 L28.4434111,76.4337302 L28.4462521,76.4337302 C28.6110269,77.0937764 29.2028904,77.5862069 29.9150206,77.5862069 L45.0856667,77.5862069 C45.795903,77.5862069 46.3887135,77.0937764 46.5534883,76.4337302 L46.5582232,76.4337302 L48.9133666,66.9838003 C51.5204071,65.9222339 53.9446801,64.5074433 56.1331547,62.7962474 L65.4808106,65.4780995 L65.4827046,65.4743115 C65.6200169,65.5131378 65.7611172,65.5339714 65.9012705,65.5339714 C66.4240043,65.5339714 66.9315865,65.2640816 67.2109461,64.777333 L74.7981631,51.6029243 C75.1532812,50.9854922 75.0235447,50.225066 74.5349022,49.7515751 L74.5386901,49.7477872 Z M65.1758825,62.2271115 L56.9674455,59.8729151 C56.6937678,59.7952626 56.4125143,59.7545424 56.1331547,59.7545424 C55.4655326,59.7545424 54.8073804,59.9761361 54.2666539,60.3984899 C52.2779924,61.9543807 50.0923587,63.2204952 47.7703597,64.1674769 C46.8745151,64.5320648 46.204999,65.3048018 45.9701476,66.2479956 L43.9019397,74.5435548 L31.0987477,74.5435548 L29.0305398,66.2479956 C28.7956883,65.3048018 28.1261723,64.5311178 27.2293807,64.1674769 C24.9073817,63.2204952 22.721748,61.9534338 20.7330865,60.3984899 C20.194254,59.977083 19.5361017,59.7545424 18.8684796,59.7545424 C18.5891201,59.7545424 18.3088135,59.7952626 18.0341888,59.8729151 L9.82575183,62.2271115 L3.42415585,51.1095468 L9.55964999,45.1615551 C10.2556815,44.4863572 10.5880721,43.5213828 10.4564416,42.5592495 C10.28125,41.2827182 10.1922337,40.0156568 10.1922337,38.7931034 C10.1922337,37.5724441 10.28125,36.3053826 10.4564416,35.0269574 C10.5880721,34.066718 10.2556815,33.0998497 9.55964999,32.4246518 L3.42415585,26.4766601 L9.82575183,15.3590954 L18.0341888,17.7151858 C18.3088135,17.7928383 18.5891201,17.8316645 18.8684796,17.8316645 C19.5361017,17.8316645 20.194254,17.6100708 20.7330865,17.187717 C22.722695,15.6337201 24.9073817,14.3666587 27.2293807,13.419677 C28.1271193,13.0531951 28.7956883,12.2804581 29.0305398,11.3391583 L31.0987477,3.04170507 L43.9019397,3.04170507 L45.9701476,11.3391583 C46.204999,12.2804581 46.8745151,13.0541421 47.7703597,13.419677 C50.0923587,14.3666587 52.2789394,15.6337201 54.2666539,17.187717 C54.8064334,17.6091239 55.4655326,17.8316645 56.1331547,17.8316645 C56.4125143,17.8316645 56.6937678,17.7928383 56.9674455,17.7151858 L65.1758825,15.3590954 L71.5784255,26.4766601 L65.4429313,32.4246518 C64.7478468,33.0998497 64.4145093,34.066718 64.5461397,35.0269574 C64.7222783,36.3053826 64.8103476,37.5724441 64.8103476,38.7931034 C64.8103476,40.0166037 64.7213313,41.2827182 64.5461397,42.5592495 C64.4145093,43.5213828 64.7478468,44.4863572 65.4429313,45.1615551 L71.5784255,51.1095468 L65.1758825,62.2271115 Z" id="Shape"></path>
                </g>
            </g>
        </g>
    </g>
</svg>