<?xml version="1.0" encoding="UTF-8"?>
<svg width="214px" height="74px" viewBox="0 0 214 74" version="1.1" xmlns="http://www.w3.org/2000/svg" xmlns:xlink="http://www.w3.org/1999/xlink">
    <!-- Generator: sketchtool 63.1 (101010) - https://sketch.com -->
    <title>13264EE6-10BB-4FE2-A0C0-025FFD13FD88</title>
    <desc>Created with sketchtool.</desc>
    <g id="Page-1" stroke="none" stroke-width="1" fill="none" fill-rule="evenodd">
        <g id="1.0-SpotCrime-—-Landing-Page-—-Desktop-HD" transform="translate(-612.000000, -1209.000000)" fill="#000000" fill-rule="nonzero">
            <g id="section__what-is-spotcrime" transform="translate(312.000000, 1125.000000)">
                <g id="Group-4" transform="translate(239.000000, 0.000000)">
                    <g id="Group-2" transform="translate(61.000000, 84.000000)">
                        <g id="noun_Map_3161285">
                            <path d="M82.878023,9.77358491 L81.9698199,9.77358491 C82.1427445,10.8365986 82.1860484,11.9439499 82.1860484,13.0956407 L82.878023,13.0956407 C86.6845518,13.0956407 89.7558094,16.2403459 89.7558094,20.1382481 L89.7558094,44.1985516 L88.5751453,45.6846629 C89.187921,46.1956213 89.5319328,46.5343725 89.7558094,46.7666016 L89.7558094,63.6350672 C89.7558094,67.5329636 86.6845518,70.6779403 82.878023,70.6779403 L10.121977,70.6779403 C6.31544354,70.6779403 3.24418593,67.5329636 3.24418593,63.6350672 L3.24418593,48.236763 L4.24954568,47.4322037 C3.67954271,46.6838728 3.39256106,46.2329324 3.24418593,45.9915103 L3.24418593,20.1382481 C3.24418593,16.2403459 6.31544354,13.0956407 10.121977,13.0956407 L51.950276,13.0956407 C51.9069758,11.9439499 51.950276,10.8365986 52.1232043,9.77358491 L10.121977,9.77358491 C4.54180777,9.77358491 0,14.4244087 0,20.1382481 L0,63.6350673 C0,69.3491762 4.54180777,74 10.121977,74 L82.878024,74 C88.4581927,74 93,69.3491762 93,63.6350673 L93,20.1382481 C93,14.4244087 88.4581917,9.77358491 82.878023,9.77358491 Z" id="Path"></path>
                            <path d="M43.0298507,50.2507951 L44.3911084,51.6603774 C45.151898,50.9757469 45.8726089,50.2507951 46.5933164,49.4855287 L47.1940299,48.8812804 L45.7924481,47.4716981 L45.1919801,48.0756995 C44.4712692,48.8008948 43.7505617,49.5258466 43.0298507,50.2507951 Z" id="Path"></path>
                            <path d="M49.8931188,46.0754717 C50.9339847,45.0801893 51.8595413,44.2507062 52.7462687,43.5457587 L51.5896175,41.8867925 C50.6257011,42.6332507 49.6617879,43.504248 48.5820896,44.5410375 L49.8931188,46.0754717 Z" id="Path"></path>
                            <path d="M56.4010215,40.490566 C57.4708647,39.7242257 58.5404737,39.1624103 59.6865672,38.7539864 L59.1901254,36.3018868 C57.9293035,36.7617528 56.7067255,37.3747016 55.5223881,38.2429914 L56.4010215,40.490566 Z" id="Path"></path>
                            <path d="M77.2206217,40.490566 L77.7313433,38.5756841 C76.5135219,38.2165225 75.1779726,37.9374739 73.8815076,37.6981132 L73.5671642,39.6928601 C74.7849788,39.8922883 76.042122,40.1715815 77.2206217,40.490566 Z" id="Path"></path>
                            <path d="M24.9041396,60.0377358 L24.9850746,57.7487886 C23.691356,57.7029665 22.3976374,57.5199469 21.1848538,57.245283 L20.8208955,59.5342381 C22.1550817,59.808902 23.5297336,59.9460916 24.9041396,60.0377358 Z" id="Path"></path>
                            <path d="M84.6716418,41.1886813 C83.6117651,40.4269419 82.4382104,39.7131414 81.2267565,39.0943396 L80.5074627,41.3313231 C81.6431247,41.9024817 82.7411294,42.5689267 83.7631135,43.2830189 L84.6716418,41.1886813 Z" id="Path"></path>
                            <path d="M5.55223881,51.7720141 C6.51620878,52.7353253 7.55713577,53.6569706 8.59829829,54.4528302 L9.71641791,52.7772515 C8.71408763,51.9813991 7.78847892,51.1436062 6.90170235,50.2641509 L5.55223881,51.7720141 Z" id="Path"></path>
                            <path d="M29.4217059,60.0377358 C30.7447607,59.843853 32.0680506,59.5335038 33.3134328,59.0295062 L32.6516703,57.245283 C31.5231531,57.6718708 30.355682,57.9433979 29.1492537,58.098452 L29.4217059,60.0377358 Z" id="Path"></path>
                            <path d="M37.0920608,57.245283 C38.1331654,56.5258207 39.1740338,55.6798193 40.2537313,54.706512 L39.0198921,53.0566038 C38.0173836,53.9873053 37.0534679,54.7912122 36.0895522,55.4259744 L37.0920608,57.245283 Z" id="Path"></path>
                            <path d="M16.0509078,58.6415094 L16.6567164,56.2977549 C15.5208851,55.7992436 14.4231747,55.2009027 13.363126,54.4528302 L12.4925373,56.696755 C13.6660312,57.4448276 14.8395242,58.093079 16.0509078,58.6415094 Z" id="Path"></path>
                            <path d="M63.9532556,36.5465506 C64.3492751,37.0736438 64.7890672,37.6447044 65.2728826,38.215765 C65.4490137,38.4793116 65.7129406,38.7868256 65.9328366,39.0943396 C66.1527327,38.830793 66.3726212,38.523279 66.5487522,38.2597324 L66.592783,38.2597324 C67.1646677,37.5567658 67.6925216,36.8540646 68.1763445,36.1510979 C76.0503643,25.7406317 78.9097878,18.2731417 79.085653,12.9582554 C79.1737147,11.7281956 79.085653,10.6300418 78.8657569,9.66379775 C78.1180146,5.79827755 75.7424065,3.42609648 73.2349717,1.93276015 C70.9917372,0.658999319 68.4843023,0 65.9328366,0 C63.3813709,0 60.8739361,0.65899922 58.6306978,1.93276015 C56.1232667,3.42609638 53.7476624,5.79827745 52.9999163,9.66379775 C52.7800203,10.6300418 52.6919548,11.7281956 52.7800203,12.9582554 C52.9558817,18.3610803 55.9031011,25.9165089 63.9532556,36.5465506 Z M65.9328366,5.84224686 C68.7922601,5.84224686 71.2556641,7.37955339 72.5312602,9.66379775 C73.1471758,10.6300418 73.4988986,11.7281956 73.5869679,12.9582554 C73.6309988,13.1338634 73.6309988,13.3094714 73.6309988,13.529316 C73.6309988,17.7900197 70.1996906,21.2163834 65.9328366,21.2163834 C61.6659827,21.2163834 58.2346745,17.7900197 58.2346745,13.529316 C58.2346745,13.3094714 58.2346745,13.1338634 58.2787091,12.9582554 C58.3667709,11.7281956 58.7184937,10.6300418 59.334413,9.66379775 C60.6100092,7.37955339 63.0734132,5.84224686 65.9328366,5.84224686 Z" id="Shape"></path>
                        </g>
                        <g id="noun_Plus_1886766" transform="translate(107.000000, 27.000000)">
                            <polygon id="Path" points="26.74 11.704 15.176 11.704 15.176 0.14 11.704 0.14 11.704 11.704 0.14 11.704 0.14 15.176 11.704 15.176 11.704 26.74 15.176 26.74 15.176 15.176 26.74 15.176"></polygon>
                        </g>
                        <g id="noun_Alert_2019754" transform="translate(149.000000, 9.000000)">
                            <path d="M32.5,65 C14.5212766,65 0,50.4787234 0,32.5 C0,14.5212766 14.5212766,0 32.5,0 C50.4787234,0 65,14.5212766 65,32.5 C65,50.4787234 50.4787234,65 32.5,65 Z M32.5,2.76595745 C16.1117021,2.76595745 2.76595745,16.1117021 2.76595745,32.5 C2.76595745,48.8882979 16.1117021,62.2340426 32.5,62.2340426 C48.8882979,62.2340426 62.2340426,48.8882979 62.2340426,32.5 C62.2340426,16.1117021 48.8882979,2.76595745 32.5,2.76595745 Z" id="Shape"></path>
                            <path d="M32.6382979,36.6489362 C31.8776596,36.6489362 31.2553191,36.0265957 31.2553191,35.2659574 L31.2553191,19.7074468 C31.2553191,18.9468085 31.8776596,18.3244681 32.6382979,18.3244681 C33.3989362,18.3244681 34.0212766,18.9468085 34.0212766,19.7074468 L34.0212766,35.2659574 C34.0212766,36.0265957 33.3989362,36.6489362 32.6382979,36.6489362 Z" id="Path"></path>
                            <circle id="Oval" cx="32.6382979" cy="44.7393617" r="3.11170213"></circle>
                        </g>
                    </g>
                </g>
            </g>
        </g>
    </g>
</svg>