<?xml version="1.0" encoding="UTF-8"?>
<svg width="54px" height="46px" viewBox="0 0 54 46" version="1.1" xmlns="http://www.w3.org/2000/svg" xmlns:xlink="http://www.w3.org/1999/xlink">
    <!-- Generator: sketchtool 63.1 (101010) - https://sketch.com -->
    <title>C9261DA5-413E-4E08-9D5E-6E3F4F5F4164</title>
    <desc>Created with sketchtool.</desc>
    <g id="Page-1" stroke="none" stroke-width="1" fill="none" fill-rule="evenodd">
        <g id="1.0-SpotCrime-—-Landing-Page-—-Desktop-HD" transform="translate(-696.000000, -2225.000000)" fill="#000000" fill-rule="nonzero">
            <g id="section__sign-up" transform="translate(432.000000, 2141.000000)">
                <g id="noun_profile_801697" transform="translate(253.000000, 69.000000)">
                    <path d="M58.1374367,60.2 C55.6191051,49.7577773 46.2155155,42 35,42 C23.7844845,42 14.3808949,49.7577773 11.8625633,60.2 L14.7549258,60.2 C17.2056122,51.3206764 25.3413133,44.8 35,44.8 C44.6586867,44.8 52.7943878,51.3206764 55.2450742,60.2 L58.1374367,60.2 Z" id="Path"></path>
                    <path d="M35,15.4 C41.1855892,15.4 46.2,20.4144108 46.2,26.6 C46.2,32.7855892 41.1855892,37.8 35,37.8 C28.8144108,37.8 23.8,32.7855892 23.8,26.6 C23.8,20.4144108 28.8144108,15.4 35,15.4 Z M35,18.2 C30.3608081,18.2 26.6,21.9608081 26.6,26.6 C26.6,31.2391919 30.3608081,35 35,35 C39.6391919,35 43.4,31.2391919 43.4,26.6 C43.4,21.9608081 39.6391919,18.2 35,18.2 Z" id="Shape"></path>
                    <g id="noun_Plus_1886766" transform="translate(51.100000, 30.800000)">
                        <polygon id="Path" points="13.37 5.852 7.588 5.852 7.588 0.07 5.852 0.07 5.852 5.852 0.07 5.852 0.07 7.588 5.852 7.588 5.852 13.37 7.588 13.37 7.588 7.588 13.37 7.588"></polygon>
                    </g>
                </g>
            </g>
        </g>
    </g>
</svg>