<?xml version="1.0" encoding="UTF-8"?>
<svg width="74px" height="88px" viewBox="0 0 74 88" version="1.1" xmlns="http://www.w3.org/2000/svg" xmlns:xlink="http://www.w3.org/1999/xlink">
    <!-- Generator: Sketch 63.1 (92452) - https://sketch.com -->
    <title>noun_trusted_1920010</title>
    <desc>Created with Sketch.</desc>
    <g id="Page-1" stroke="none" stroke-width="1" fill="none" fill-rule="evenodd">
        <g id="1.0-SpotCrime-—-Landing-Page-—-Desktop-HD-Copy" transform="translate(-982.000000, -1749.000000)" fill="#000000" fill-rule="nonzero">
            <g id="section__what-it-costs" transform="translate(730.000000, 1644.000000)">
                <g id="noun_trusted_1920010" transform="translate(252.000000, 105.000000)">
                    <polygon id="Path" points="53.3125 34.984375 51.109375 32.78125 33.171875 50.71875 26.953125 44.5 24.734375 46.71875 33.171875 55.140625"></polygon>
                    <path d="M0,50.78125 C0,71.453125 19.734375,87.5 36.71875,87.5 C53.703125,87.5 73.4375,71.453125 73.4375,50.78125 L73.4375,6.5 L36.203125,0 L0,6.5 L0,50.78125 Z M3.125,9.125 L36.203125,3.125 L70.3125,9.125 L70.3125,50.78125 C70.3125,69.390625 51.9375,84.375 36.71875,84.375 C21.5,84.375 3.125,69.390625 3.125,50.78125 L3.125,9.125 Z" id="Shape"></path>
                    <path d="M36.71875,75 C47.390625,75 60.9375,63.59375 60.9375,50.78125 L60.9375,17 L36.234375,12.671875 L12.5,16.953125 L12.5,50.78125 C12.5,63.59375 26.046875,75 36.71875,75 Z M15.625,19.5625 L36.234375,15.84375 L57.8125,19.625 L57.8125,50.78125 C57.8125,61.71875 45.921875,71.875 36.71875,71.875 C27.515625,71.875 15.625,61.640625 15.625,50.78125 L15.625,19.5625 Z" id="Shape"></path>
                </g>
            </g>
        </g>
    </g>
</svg>