<?xml version="1.0" encoding="UTF-8"?>
<svg width="28px" height="24px" viewBox="0 0 28 24" version="1.1" xmlns="http://www.w3.org/2000/svg" xmlns:xlink="http://www.w3.org/1999/xlink">
    <!-- Generator: sketchtool 63.1 (101010) - https://sketch.com -->
    <title>2A8029B9-9D6A-4337-9D75-D99CB5530CC1</title>
    <desc>Created with sketchtool.</desc>
    <g id="Page-1" stroke="none" stroke-width="1" fill="none" fill-rule="evenodd">
        <g id="1.0-SpotCrime-—-Landing-Page-—-Desktop-HD" transform="translate(-927.000000, -2712.000000)" fill-rule="nonzero">
            <g id="Footer" transform="translate(0.000000, 2580.000000)">
                <g id="social-icons" transform="translate(878.000000, 127.000000)">
                    <g id="ant-design:twitter-outlined" transform="translate(46.000000, 0.000000)">
                        <g id="Icon" transform="translate(3.043478, 4.565217)" fill="#1D3339">
                            <path d="M27.8478261,3.89993207 C26.829212,4.33933424 25.7207201,4.65557065 24.5789402,4.77873641 C25.7643692,4.07448039 26.6520875,2.96187346 27.0755435,1.64966033 C25.9631674,2.3113905 24.74456,2.77540738 23.4737772,3.02112772 C22.4001371,1.87334267 20.8977426,1.22343047 19.326087,1.22688834 C16.1803668,1.22688834 13.6504755,3.7767663 13.6504755,6.90584239 C13.6504755,7.34524457 13.7037364,7.78464674 13.7902853,8.20740489 C9.08002717,7.96107337 4.87907609,5.71080163 2.08620924,2.26548913 C1.57731914,3.13469132 1.31064338,4.12438026 1.31392663,5.13158967 C1.31392663,7.10224185 2.31589674,8.83987772 3.84381793,9.86182065 C2.94339112,9.82635931 2.06404817,9.5788659 1.27730978,9.13947011 L1.27730978,9.209375 C1.27730978,11.9689538 3.22798913,14.2558424 5.82778533,14.7817935 C5.33964503,14.9085889 4.83748941,14.9734553 4.33315217,14.9748641 C3.96365489,14.9748641 3.61413043,14.9382473 3.26127717,14.8883152 C3.98029891,17.138587 6.07411685,18.7730299 8.5673913,18.8262908 C6.61671196,20.354212 4.17336957,21.2529891 1.5203125,21.2529891 C1.04429348,21.2529891 0.604891304,21.2363451 0.148845109,21.1830842 C2.6654212,22.7975543 5.6513587,23.7296196 8.8669837,23.7296196 C19.3061141,23.7296196 25.0183424,15.0813859 25.0183424,7.57493207 C25.0183424,7.32860054 25.0183424,7.08226902 25.0016984,6.8359375 C26.1068614,6.02703804 27.0755435,5.02506793 27.8478261,3.89993207 Z" id="Icon-Path"></path>
                        </g>
                        <rect id="ViewBox" x="0" y="0" width="34.0869565" height="34.0869565"></rect>
                    </g>
                </g>
            </g>
        </g>
    </g>
</svg>